<svg xmlns="http://www.w3.org/2000/svg" viewBox="0 0 123 153.92">
  <defs>
    <style>
      .cls-1 {
        fill: #939297;
      }

      .cls-1, .cls-2 {
        stroke: #231f20;
      }

      .cls-1, .cls-2, .cls-4 {
        stroke-miterlimit: 10;
      }

      .cls-2 {
        fill: #86858c;
      }

      .cls-3 {
        fill: #161618;
      }

      .cls-4 {
        fill: none;
        stroke: #161618;
      }
    </style>
  </defs>
  <title>Fighter</title>
  <g id="Guns">
    <path class="cls-1" d="M507.5,269.5l3.5,9-7,16L486,346l25-53.5,6-12s2.5-5,0-5.5-4-8-4-8h-7Z" transform="translate(-485.53 -206.62)"/>
    <path class="cls-1" d="M572.57,276.82,574,292.5l-7,16L549,360l25-53.5,6-12s2.5-5,0-5.5c-2.77-.55-4.79-7.62-4-8s3.2,5,4.77,4.44c.88-.29,1-2.27,1-4Z" transform="translate(-485.53 -206.62)"/>
  </g>
  <g id="Body">
    <path class="cls-2" d="M515,294l-11,38.5v24l14,3.5,13-11,11-13.5,7-16,10-9.5c2.29-2.68,5.06-6.84,4.5-11.5-.86-7.17-8.94-9.87-8.5-15,.2-2.31,2.17-5.57,11-9l19.5,14,4-5.5v-5s5,.5,6-2.5,4-9,4-9l5-6V257l-4.5,3-1-3s-1.5,0,2.5-3.5,3-10,3-10L608,232s-5-12.5-15.5-7l-4,6.5s-6,3.5-8,2.5-8-5-8-5l.5-5.4s-.5-1.4-3,0l-2.5,1.4-9.5-2s3-7.48-2-2.48-13.5,3-13.5,3L539,215s1.5-11-9-7-8.5,10.5-8.5,10.5l-9.5,10,3.5,2.5-4.5,6.5-.5,6-6.5,6v16s5,5,8.5,1.5,13.5-2.5,13.5-2.5l2,8,1.5,3.5-11-.5Z" transform="translate(-485.53 -206.62)"/>
  </g>
  <g id="Engines">
    <path class="cls-3" d="M513.5,229c6.5,0,16.5,4.5,18.5,10.5s-3,15.5-7,15-11.5-7.41-11.5-7.41Z" transform="translate(-485.53 -206.62)"/>
    <path class="cls-3" d="M601,249.2s-7-10.5-15.5-6.5-12.5,9-12.5,9l4,8.5s11.5,11,16.5,5.5S604.41,253,601,249.2Z" transform="translate(-485.53 -206.62)"/>
    <line class="cls-4" x1="51.97" y1="5.88" x2="45.01" y2="30.21"/>
    <line class="cls-4" x1="104.51" y1="22.38" x2="99.47" y2="36.08"/>
  </g>
</svg>
